# xmcd
#
# Track frame offsets:
#	150
#	11647
#	23510
#	57224
#	69470
#	82362
#	102840
#	114846
#	129791
#	157786
#	172667
#	187436
#
# Disc length: 2704 seconds
# Revision: 0
# Processed by: cddbd v1.5.2PL0 Copyright (c) Steve Scherf et al.
# Submitted via: dBpowerAMP V12.0
#
DISCID=8c0a8e0c
DTITLE=Ray Charles - Let The Good Times Roll [TKO]
DYEAR=2005
DGENRE=R&B - Soul
TTITLE0=Let the Good Times Roll
TTITLE1=Hit the Road Jack
TTITLE2=Georgia On My Mind
TTITLE3=C.C. Rider
TTITLE4=Baby Won't You Please Come Home
TTITLE5=Ode to Billie Joe
TTITLE6=Mess Around
TTITLE7=Hallelujah I Love Her So
TTITLE8=What I'd Say
TTITLE9=Let's Get Stoned
TTITLE10=Eleanor Rigby
TTITLE11=You Are My Sunshine
EXTD=
EXTT0=
EXTT1=
EXTT2=
EXTT3=
EXTT4=
EXTT5=
EXTT6=
EXTT7=
EXTT8=
EXTT9=
EXTT10=
EXTT11=
PLAYORDER=
